# xmcd
#
# Track frame offsets: 
#        150
#        17862
#        45706
#        64580
#        86255
#        104024
#        121248
#        142626
#        157587
#        173082
#        190909
#        210646
#        223750
#        240289
#        279717
#
# Disc length: 3895 seconds
#
# Revision: 0
# Processed by: cddbd v1.5.2PL0 Copyright (c) Steve Scherf et al.
# Submitted via: ExactAudioCopy v1.3
#
DISCID=c40f350f
DTITLE=B.B. and The Blues Shacks - Straight Blues Big Swing - Blues Edit
DTITLE=ion-
DYEAR=1999
DGENRE=Jump Blues, Electric Blues
TTITLE0=Lonesome Without You
TTITLE1=Ordinary Blues
TTITLE2=Lowdown Ways
TTITLE3=Run All Over Town
TTITLE4=Pocketful Of Wishes
TTITLE5=Still Jivin'
TTITLE6=Too Long
TTITLE7=How I Cried For You
TTITLE8=Ain't Gonna Cry No More
TTITLE9=Have Mercy On A Falling Man
TTITLE10=Stompin' and Rollin'
TTITLE11=Too Close Love
TTITLE12=It's Up To You
TTITLE13=Close The Door
TTITLE14=King Of Meat
EXTD=
EXTT0=
EXTT1=
EXTT2=
EXTT3=
EXTT4=
EXTT5=
EXTT6=
EXTT7=
EXTT8=
EXTT9=
EXTT10=
EXTT11=
EXTT12=
EXTT13=
EXTT14=
PLAYORDER=
